<?xml version="1.0" encoding="UTF-8"?>
<svg id="Layer_1" data-name="Layer 1" xmlns="http://www.w3.org/2000/svg" viewBox="0 0 880.66 400">
  <defs>
    <style>
      .cls-1 {
        fill: #fff;
      }
    </style>
  </defs>
  <g>
    <path class="cls-1" d="M543.81,141.32v-64.21h-15.87v-10.89h46.19v10.89h-15.87v64.21h-14.46Z"/>
    <path class="cls-1" d="M585.08,141.32v-75.1h14.36v26.66h2.16c.81-2.69,2.31-4.83,4.51-6.43,2.19-1.6,4.76-2.39,7.7-2.39,3.82,0,6.82,1.46,9.01,4.37,2.19,2.91,3.29,6.9,3.29,11.97v40.93h-14.36v-38.49c0-2.44-.41-4.32-1.22-5.63-.81-1.31-1.97-1.97-3.47-1.97s-3,.55-4.32,1.64c-1.31,1.1-2.41,2.64-3.29,4.65v39.81h-14.36Z"/>
    <path class="cls-1" d="M680.36,128.55c-1.25,4.88-3.4,8.39-6.43,10.51-3.04,2.13-7.56,3.19-13.57,3.19-6.57,0-11.78-1.72-15.63-5.16-3.85-3.44-5.77-8.26-5.77-14.46v-19.43c0-6.01,1.86-10.7,5.59-14.08,3.72-3.38,8.71-5.07,14.97-5.07s11.31,1.73,14.97,5.2c3.66,3.46,5.49,8.44,5.49,14.93v11.61h-26.66v7.46c0,3.15.56,5.49,1.69,7.03,1.13,1.54,3.07,2.31,5.82,2.31,2.25,0,4-.53,5.26-1.6,1.25-1.06,2.1-2.97,2.53-5.73l11.74,3.29ZM653.33,102.36v5.35h12.3v-5.07c0-3.38-.45-5.76-1.36-7.13-.91-1.38-2.49-2.07-4.74-2.07s-3.93.66-4.83,1.97c-.91,1.31-1.36,3.63-1.36,6.95Z"/>
    <path class="cls-1" d="M533.29,333.44v-75.1h14.36v64.21h24.69v10.89h-39.05Z"/>
    <path class="cls-1" d="M597.39,334.38c-4.13,0-7.5-1.5-10.09-4.51-2.6-3-3.9-6.91-3.9-11.73,0-5.07,1.39-9,4.18-11.78,2.78-2.78,6.46-4.18,11.03-4.18h10.14v-8.26c0-2.63-.5-4.52-1.5-5.68-1-1.16-2.53-1.74-4.6-1.74s-3.47.64-4.41,1.92c-.94,1.28-1.66,3.61-2.16,6.99l-11.55-2.35c1-5.88,2.99-10.17,5.96-12.86,2.97-2.69,7.21-4.04,12.72-4.04,6.2,0,10.94,1.31,14.22,3.94,3.29,2.63,4.93,6.98,4.93,13.05v24.31c0,2.75.53,4.49,1.6,5.21,1.06.72,2.6.83,4.6.33v10.33c-4.01.94-7.21.77-9.62-.52-2.41-1.28-4.08-3.68-5.02-7.18h-2.07c-1.38,2.5-3.35,4.59-5.91,6.24-2.57,1.66-5.41,2.49-8.54,2.49ZM601.33,324.9c1.38,0,2.69-.38,3.94-1.13,1.25-.75,2.41-1.91,3.47-3.47v-10.05h-7.89c-1.63,0-2.79.52-3.47,1.55-.69,1.03-1.03,2.99-1.03,5.87,0,2.32.39,4.1,1.17,5.35.78,1.25,2.05,1.88,3.8,1.88Z"/>
    <path class="cls-1" d="M659.89,334.2c-3.94,0-7.79-.56-11.55-1.69-3.76-1.13-6.6-2.47-8.54-4.04v-70.13h14.36v26.66h2.16c.81-2.88,2.24-5.07,4.27-6.57,2.03-1.5,4.61-2.25,7.75-2.25,4.19,0,7.32,1.69,9.39,5.07,2.07,3.38,3.1,7.79,3.1,13.24v20.28c0,6.32-1.77,11.14-5.3,14.46-3.54,3.32-8.75,4.98-15.63,4.98ZM660.64,323.78c2.19,0,3.71-.67,4.55-2.02.85-1.35,1.27-3.71,1.27-7.09v-18.49c0-3.19-.41-5.46-1.22-6.81-.81-1.35-2-2.02-3.57-2.02-1.38,0-2.69.44-3.94,1.31-1.25.88-2.44,2.35-3.57,4.41v28.73c.81.63,1.74,1.11,2.77,1.46,1.03.34,2.27.52,3.71.52Z"/>
  </g>
  <path class="cls-1" d="M0,0v400h400V0H0ZM120.89,158.03h-24.75v100.18h-22.56v-100.18h-24.75s0-16.99,0-16.99h72.06v16.99ZM151.67,236.9c1.81,3.86,5.1,5.79,9.89,5.79,4.3,0,7.27-1.68,8.93-5.05,1.66-3.37,2.68-9.98,3.08-19.85l22.41,1.47c-.49,13.96-3.47,24.19-8.93,30.68-5.47,6.49-13.87,9.74-25.19,9.74s-20.41-3.42-26.36-10.25c-5.96-6.83-8.93-16.94-8.93-30.32v-38.37c0-13.67,2.98-23.95,8.93-30.83,5.95-6.88,14.74-10.33,26.36-10.33s19.7,3.27,25.12,9.81c5.42,6.54,8.42,16.94,9.01,31.2l-22.41,1.46c-.39-10.15-1.42-16.94-3.08-20.36-1.66-3.42-4.64-5.13-8.93-5.13-4.79,0-8.08,1.86-9.89,5.57-1.81,3.71-2.71,10.35-2.71,19.92v35.88c0,8.79.9,15.11,2.71,18.97ZM211,258.21c1.32-2.93,3.11-5.42,5.38-7.46,5.45-4.92,13.73-7.37,24.82-7.37s19.37,2.46,24.82,7.37c2.27,2.04,4.05,4.53,5.38,7.46h-60.41ZM274.2,152.77c0,6.31-1.63,11.57-4.89,15.79-3.26,4.22-7.76,6.7-13.51,7.44v4.03c5.74.74,10.24,3.22,13.51,7.44,3.26,4.22,4.89,9.48,4.89,15.79v5.01c0,10.02-2.73,17.48-8.18,22.4-5.45,4.92-13.73,7.37-24.82,7.37s-19.37-2.46-24.82-7.37c-5.45-4.91-8.18-12.38-8.18-22.4v-5.01c0-6.4,1.61-11.69,4.82-15.86,3.21-4.17,7.69-6.63,13.43-7.37v-4.03c-5.75-.74-10.22-3.2-13.43-7.37-3.21-4.17-4.82-9.46-4.82-15.86v-5.01c0-2.37.16-4.6.46-6.68h22.64c-.51,2.07-.76,4.67-.76,7.8v5.98c0,5.56.8,9.48,2.41,11.76,1.61,2.27,4.36,3.41,8.25,3.41s6.64-1.14,8.25-3.41c1.61-2.27,2.41-6.19,2.41-11.76v-5.98c0-3.12-.25-5.72-.76-7.8h22.64c.31,2.09.46,4.31.46,6.68v5.01ZM351.17,258.21h-60.93v-117.17h22.41v100.18h38.52v16.99ZM241.2,186.02c-3.9,0-6.64,1.14-8.25,3.41-1.61,2.27-2.41,6.19-2.41,11.76v5.98c0,5.56.8,9.46,2.41,11.69,1.61,2.23,4.36,3.34,8.25,3.34s6.64-1.11,8.25-3.34c1.61-2.23,2.41-6.12,2.41-11.69v-5.98c0-5.56-.8-9.48-2.41-11.76-1.61-2.27-4.36-3.41-8.25-3.41Z"/>
  <path class="cls-1" d="M551.9,238.32c-7.44,0-13.07-2.19-16.88-6.56-3.82-4.38-5.72-10.85-5.72-19.42v-24.57c0-8.75,1.91-15.33,5.72-19.74,3.81-4.41,9.44-6.61,16.88-6.61s12.62,2.1,16.09,6.28c3.47,4.19,5.39,10.85,5.77,19.98l-14.35.94c-.25-6.5-.91-10.85-1.97-13.04-1.06-2.19-2.97-3.28-5.72-3.28-3.06,0-5.17,1.19-6.33,3.56-1.16,2.38-1.74,6.63-1.74,12.76v22.98c0,5.63.58,9.68,1.74,12.15,1.16,2.47,3.27,3.71,6.33,3.71,2.75,0,4.66-1.08,5.72-3.24,1.06-2.16,1.72-6.39,1.97-12.71l14.35.94c-.31,8.94-2.22,15.49-5.72,19.65-3.5,4.16-8.88,6.24-16.13,6.24Z"/>
  <path class="cls-1" d="M595.14,238.32c-3.56,0-6.39-1.47-8.49-4.41-2.1-2.94-3.14-6.91-3.14-11.91v-40.89h14.35v37.52c0,2.88.36,5,1.08,6.38.72,1.38,1.8,2.06,3.24,2.06,1.56,0,2.99-.58,4.27-1.74,1.28-1.16,2.52-2.95,3.71-5.39v-38.83h14.35v56.28h-14.35v-7.88h-2.06c-.81,2.69-2.41,4.83-4.78,6.43-2.38,1.59-5.1,2.39-8.16,2.39Z"/>
  <path class="cls-1" d="M636.48,237.38v-10.5h13.41v-54.02h-13.41v-10.5h27.76v64.53h12.66v10.5h-40.42Z"/>
  <path class="cls-1" d="M711.05,238.32c-5.82,0-10.36-1.67-13.65-5.02-3.28-3.34-4.92-7.93-4.92-13.74v-27.95h-9.85v-10.5h9.85v-18.76h14.35v18.76h15.29v10.5h-15.29v27.13c0,2.74.56,4.88,1.69,6.41,1.12,1.53,2.78,2.29,4.97,2.29,1.56,0,3.06-.22,4.5-.66,1.44-.44,2.56-.84,3.38-1.22l1.41,10.49c-1.06.63-2.69,1.17-4.88,1.61-2.19.44-4.47.66-6.85.66Z"/>
  <path class="cls-1" d="M745.48,238.32c-3.56,0-6.39-1.47-8.49-4.41-2.1-2.94-3.14-6.91-3.14-11.91v-40.89h14.35v37.52c0,2.88.36,5,1.08,6.38.72,1.38,1.8,2.06,3.24,2.06,1.56,0,2.99-.58,4.27-1.74,1.28-1.16,2.52-2.95,3.71-5.39v-38.83h14.35v56.28h-14.35v-7.88h-2.06c-.81,2.69-2.41,4.83-4.78,6.43-2.38,1.59-5.1,2.39-8.16,2.39Z"/>
  <path class="cls-1" d="M787.39,237.38v-56.28h14.35v9.47h2.16c1-3.63,2.63-6.27,4.88-7.93,2.25-1.66,4.91-2.49,7.97-2.49,3.69,0,6.46,1.36,8.3,4.08,1.84,2.72,2.77,6.58,2.77,11.58v9.57h-12.85v-5.25c0-3.25-.36-5.53-1.08-6.85-.72-1.31-2.02-1.97-3.89-1.97-1.56,0-3.09.61-4.6,1.83-1.5,1.22-2.72,3.14-3.66,5.77v38.45h-14.35Z"/>
  <path class="cls-1" d="M880.66,224.62c-1.25,4.88-3.39,8.38-6.42,10.5-3.03,2.13-7.55,3.19-13.55,3.19-6.57,0-11.77-1.72-15.62-5.16-3.84-3.44-5.77-8.25-5.77-14.44v-19.42c0-6,1.86-10.69,5.58-14.07,3.72-3.38,8.71-5.06,14.96-5.06s11.3,1.73,14.96,5.19,5.49,8.43,5.49,14.91v11.6h-26.64v7.45c0,3.14.56,5.49,1.69,7.03,1.13,1.54,3.06,2.31,5.82,2.31,2.25,0,4-.53,5.25-1.59,1.25-1.06,2.09-2.97,2.53-5.72l11.72,3.28ZM853.65,198.46v5.35h12.29v-5.06c0-3.38-.45-5.75-1.36-7.13-.91-1.37-2.49-2.06-4.74-2.06s-3.93.66-4.83,1.97c-.91,1.31-1.36,3.63-1.36,6.94Z"/>
</svg>