<svg xmlns="http://www.w3.org/2000/svg" width="342" height="341" viewBox="0 0 342 341" fill="none">
  <path d="M0 0V340.684H341.762V0H0ZM101.315 134.596H80.1603V219.954H60.8849V134.596H39.7298V120.117H101.315V134.596ZM129.177 201.796C130.724 205.083 133.535 206.727 137.628 206.727C141.301 206.727 143.848 205.288 145.266 202.418C146.684 199.547 147.564 193.909 147.897 185.511L167.053 186.763C166.635 198.661 164.088 207.374 159.415 212.902C154.741 218.438 147.564 221.198 137.884 221.198C128.203 221.198 120.437 218.285 115.353 212.459C110.261 206.633 107.715 198.023 107.715 186.627V153.93C107.715 142.287 110.261 133.523 115.353 127.663C120.445 121.795 127.956 118.865 137.884 118.865C147.812 118.865 154.724 121.65 159.355 127.229C163.986 132.807 166.549 141.665 167.053 153.81L147.897 155.062C147.564 146.409 146.684 140.626 145.266 137.713C143.848 134.8 141.301 133.344 137.628 133.344C133.535 133.344 130.724 134.928 129.177 138.088C127.631 141.248 126.862 146.903 126.862 155.062V185.639C126.862 193.125 127.631 198.517 129.177 201.796ZM181.937 219.954C183.065 217.459 184.594 215.338 186.534 213.6C191.19 209.41 198.265 207.315 207.749 207.315C217.232 207.315 224.307 209.41 228.963 213.6C230.903 215.338 232.432 217.467 233.56 219.954H181.928H181.937ZM235.961 130.116C235.961 135.49 234.568 139.97 231.783 143.564C228.998 147.159 225.144 149.271 220.24 149.91V153.35C225.144 153.981 228.998 156.101 231.783 159.696C234.568 163.29 235.961 167.778 235.961 173.144V177.411C235.961 185.945 233.628 192.308 228.972 196.498C224.315 200.689 217.241 202.784 207.757 202.784C198.273 202.784 191.199 200.689 186.542 196.498C181.877 192.308 179.553 185.945 179.553 177.411V173.144C179.553 167.693 180.929 163.188 183.671 159.636C186.414 156.076 190.242 153.989 195.155 153.35V149.91C190.242 149.279 186.423 147.184 183.671 143.624C180.929 140.072 179.553 135.567 179.553 130.116V125.849C179.553 123.83 179.69 121.931 179.946 120.151H199.298C198.863 121.914 198.649 124.128 198.649 126.794V131.887C198.649 136.631 199.333 139.97 200.708 141.903C202.084 143.837 204.433 144.808 207.757 144.808C211.081 144.808 213.439 143.837 214.806 141.903C216.181 139.97 216.865 136.631 216.865 131.887V126.794C216.865 124.128 216.651 121.914 216.216 120.151H235.568C235.833 121.931 235.961 123.822 235.961 125.849V130.116ZM302.032 219.954H249.956V120.125H269.112V205.475H302.032V219.954Z" fill="black"/>
</svg>