<?xml version="1.0" encoding="utf-8"?>
<!-- Generator: Adobe Illustrator 28.1.0, SVG Export Plug-In . SVG Version: 6.00 Build 0)  -->
<svg version="1.1" id="Layer_1" xmlns="http://www.w3.org/2000/svg" xmlns:xlink="http://www.w3.org/1999/xlink" x="0px" y="0px"
	 viewBox="0 0 892.4 400" style="enable-background:new 0 0 892.4 400;" xml:space="preserve">
<g>
	<path d="M543.8,141.3V77.1h-15.9V66.2h46.2v10.9h-15.9v64.2H543.8z"/>
	<path d="M585.1,141.3V66.2h14.4v26.7h2.2c0.8-2.7,2.3-4.8,4.5-6.4c2.2-1.6,4.8-2.4,7.7-2.4c3.8,0,6.8,1.5,9,4.4
		c2.2,2.9,3.3,6.9,3.3,12v40.9h-14.4v-38.5c0-2.4-0.4-4.3-1.2-5.6c-0.8-1.3-2-2-3.5-2c-1.6,0-3,0.5-4.3,1.6
		c-1.3,1.1-2.4,2.6-3.3,4.6v39.8H585.1z"/>
	<path d="M680.4,128.5c-1.3,4.9-3.4,8.4-6.4,10.5c-3,2.1-7.6,3.2-13.6,3.2c-6.6,0-11.8-1.7-15.6-5.2c-3.8-3.4-5.8-8.3-5.8-14.5
		v-19.4c0-6,1.9-10.7,5.6-14.1c3.7-3.4,8.7-5.1,15-5.1c6.3,0,11.3,1.7,15,5.2c3.7,3.5,5.5,8.4,5.5,14.9v11.6h-26.7v7.5
		c0,3.1,0.6,5.5,1.7,7c1.1,1.5,3.1,2.3,5.8,2.3c2.3,0,4-0.5,5.3-1.6c1.3-1.1,2.1-3,2.5-5.7L680.4,128.5z M653.3,102.4v5.4h12.3v-5.1
		c0-3.4-0.5-5.8-1.4-7.1c-0.9-1.4-2.5-2.1-4.7-2.1c-2.3,0-3.9,0.7-4.8,2C653.8,96.7,653.3,99,653.3,102.4z"/>
	<path d="M552.4,238.3c-7.4,0-13.1-2.2-16.9-6.6c-3.8-4.4-5.7-10.9-5.7-19.4v-24.6c0-8.8,1.9-15.3,5.7-19.8
		c3.8-4.4,9.4-6.6,16.9-6.6c7.3,0,12.6,2.1,16.1,6.3c3.5,4.2,5.4,10.9,5.8,20l-14.4,0.9c-0.3-6.5-0.9-10.9-2-13
		c-1.1-2.2-3-3.3-5.7-3.3c-3.1,0-5.2,1.2-6.3,3.6c-1.2,2.4-1.7,6.6-1.7,12.8v23c0,5.6,0.6,9.7,1.7,12.2c1.2,2.5,3.3,3.7,6.3,3.7
		c2.8,0,4.7-1.1,5.7-3.2c1.1-2.2,1.7-6.4,2-12.7l14.4,0.9c-0.3,9-2.2,15.5-5.7,19.7C565.1,236.2,559.7,238.3,552.4,238.3z"/>
	<path d="M585.8,237.4v-56.3h14.4v9.5h2.2c1-3.6,2.6-6.3,4.9-7.9c2.3-1.7,4.9-2.5,8-2.5c3.7,0,6.5,1.4,8.3,4.1
		c1.8,2.7,2.8,6.6,2.8,11.6v9.6h-12.9v-5.3c0-3.3-0.4-5.5-1.1-6.9c-0.7-1.3-2-2-3.9-2c-1.6,0-3.1,0.6-4.6,1.8
		c-1.5,1.2-2.7,3.1-3.7,5.8v38.5H585.8z"/>
	<path d="M679.8,224.6c-1.3,4.9-3.4,8.4-6.4,10.5c-3,2.1-7.6,3.2-13.6,3.2c-6.6,0-11.8-1.7-15.6-5.2c-3.8-3.4-5.8-8.3-5.8-14.5
		v-19.4c0-6,1.9-10.7,5.6-14.1c3.7-3.4,8.7-5.1,15-5.1c6.3,0,11.3,1.7,15,5.2c3.7,3.5,5.5,8.4,5.5,14.9v11.6h-26.7v7.5
		c0,3.1,0.6,5.5,1.7,7c1.1,1.5,3.1,2.3,5.8,2.3c2.3,0,4-0.5,5.3-1.6c1.3-1.1,2.1-3,2.5-5.7L679.8,224.6z M652.7,198.4v5.4H665v-5.1
		c0-3.4-0.5-5.8-1.4-7.1c-0.9-1.4-2.5-2.1-4.7-2.1c-2.3,0-3.9,0.7-4.8,2C653.2,192.8,652.7,195.1,652.7,198.4z"/>
	<path d="M747.5,237.4v-10.5h12.6v-35.3h-12.6v-10.5h27v45.8h12.6v10.5H747.5z M775.9,165.4c0-4.7-3.8-8.5-8.5-8.5s-8.5,3.8-8.5,8.5
		c0,4.7,3.8,8.5,8.5,8.5S775.9,170.2,775.9,165.4z"/>
	<path d="M818.1,238.3c-6.4,0-11.4-1.7-15.1-5.2c-3.7-3.5-5.5-8.2-5.5-14.2v-19c0-6.2,1.8-11,5.5-14.6c3.7-3.5,8.7-5.3,15.1-5.3
		c6.3,0,11.3,1.8,15,5.4c3.7,3.6,5.5,8.4,5.5,14.6v19c0,6-1.8,10.7-5.5,14.1C829.4,236.6,824.5,238.3,818.1,238.3z M818.1,227.8
		c2.1,0,3.7-0.7,4.6-2.1c1-1.4,1.5-3.8,1.5-7.2v-18.2c0-3.4-0.5-5.9-1.5-7.4c-1-1.5-2.5-2.3-4.6-2.3c-2.1,0-3.7,0.8-4.7,2.3
		c-1,1.5-1.5,3.9-1.5,7.3v18c0,3.4,0.5,5.9,1.5,7.4C814.4,227.1,816,227.8,818.1,227.8z"/>
	<path d="M851.4,237.4v-56.3h14.4v7.9h2.2c1-2.8,2.6-4.9,4.8-6.5c2.2-1.6,4.7-2.3,7.5-2.3c3.8,0,6.8,1.4,9,4.3
		c2.2,2.9,3.2,6.9,3.2,12v40.9h-14.4V199c0-2.5-0.4-4.4-1.2-5.7c-0.8-1.3-2-2-3.5-2c-1.6,0-3,0.5-4.3,1.6c-1.3,1.1-2.4,2.7-3.3,4.7
		v39.7H851.4z"/>
	<path d="M533.3,333.4v-75.1h14.4v64.2h24.7v10.9H533.3z"/>
	<path d="M597.4,334.4c-4.1,0-7.5-1.5-10.1-4.5c-2.6-3-3.9-6.9-3.9-11.7c0-5.1,1.4-9,4.2-11.8c2.8-2.8,6.5-4.2,11-4.2h10.1v-8.3
		c0-2.6-0.5-4.5-1.5-5.7c-1-1.2-2.5-1.7-4.6-1.7c-2,0-3.5,0.6-4.4,1.9c-0.9,1.3-1.7,3.6-2.2,7l-11.5-2.3c1-5.9,3-10.2,6-12.9
		c3-2.7,7.2-4,12.7-4c6.2,0,10.9,1.3,14.2,3.9c3.3,2.6,4.9,7,4.9,13v24.3c0,2.8,0.5,4.5,1.6,5.2c1.1,0.7,2.6,0.8,4.6,0.3v10.3
		c-4,0.9-7.2,0.8-9.6-0.5c-2.4-1.3-4.1-3.7-5-7.2h-2.1c-1.4,2.5-3.3,4.6-5.9,6.2C603.4,333.6,600.5,334.4,597.4,334.4z M601.3,324.9
		c1.4,0,2.7-0.4,3.9-1.1c1.3-0.8,2.4-1.9,3.5-3.5v-10h-7.9c-1.6,0-2.8,0.5-3.5,1.5c-0.7,1-1,3-1,5.9c0,2.3,0.4,4.1,1.2,5.4
		C598.3,324.3,599.6,324.9,601.3,324.9z"/>
	<path d="M659.9,334.2c-3.9,0-7.8-0.6-11.5-1.7c-3.8-1.1-6.6-2.5-8.5-4v-70.1h14.4V285h2.2c0.8-2.9,2.2-5.1,4.3-6.6
		c2-1.5,4.6-2.3,7.7-2.3c4.2,0,7.3,1.7,9.4,5.1c2.1,3.4,3.1,7.8,3.1,13.2v20.3c0,6.3-1.8,11.1-5.3,14.5
		C672,332.5,666.8,334.2,659.9,334.2z M660.6,323.8c2.2,0,3.7-0.7,4.6-2c0.8-1.3,1.3-3.7,1.3-7.1v-18.5c0-3.2-0.4-5.5-1.2-6.8
		c-0.8-1.3-2-2-3.6-2c-1.4,0-2.7,0.4-3.9,1.3c-1.3,0.9-2.4,2.3-3.6,4.4v28.7c0.8,0.6,1.7,1.1,2.8,1.5
		C658,323.6,659.2,323.8,660.6,323.8z"/>
</g>
<path d="M732.2,193.8c2.1-2.7,3.1-6.1,3.1-10.1v-3.2c0-6.4-1.7-11.2-5.2-14.4c-3.5-3.2-8.8-4.7-15.9-4.7s-12.4,1.6-15.9,4.7
	c-3.5,3.2-5.2,7.9-5.2,14.4v3.2c0,4.1,1,7.5,3.1,10.2c2.1,2.7,4.9,4.3,8.6,4.7v2.6c-3.7,0.5-6.6,2.1-8.6,4.7
	c-2.1,2.7-3.1,6.1-3.1,10.2v3.2c0,6.4,1.7,11.2,5.2,14.4c3.5,3.2,8.8,4.7,15.9,4.7s12.4-1.6,15.9-4.7c3.5-3.2,5.2-7.9,5.2-14.4V216
	c0-4-1-7.4-3.1-10.1c-2.1-2.7-5-4.3-8.7-4.8v-2.6C727.2,198.1,730.1,196.5,732.2,193.8z M721,218.5c0,3.6-0.5,6.1-1.5,7.5
	c-1,1.4-2.8,2.1-5.3,2.1c-2.5,0-4.3-0.7-5.3-2.1c-1-1.4-1.5-3.9-1.5-7.5v-3.8c0-3.6,0.5-6.1,1.5-7.5c1-1.5,2.8-2.2,5.3-2.2
	c2.5,0,4.3,0.7,5.3,2.2c1,1.5,1.5,4,1.5,7.5V218.5z M707.3,181.1c0-3.6,0.5-6.1,1.5-7.5c1-1.4,2.8-2.1,5.3-2.1
	c2.5,0,4.3,0.7,5.3,2.1c1,1.4,1.5,3.9,1.5,7.5v3.8c0,3.6-0.5,6.1-1.5,7.5c-1,1.5-2.8,2.2-5.3,2.2c-2.5,0-4.3-0.7-5.3-2.2
	c-1-1.5-1.5-4-1.5-7.5V181.1z"/>
<g>
	<path d="M241.2,186c-3.9,0-6.6,1.1-8.3,3.4c-1.6,2.3-2.4,6.2-2.4,11.8v6c0,5.6,0.8,9.5,2.4,11.7c1.6,2.2,4.4,3.3,8.3,3.3
		c3.9,0,6.6-1.1,8.2-3.3c1.6-2.2,2.4-6.1,2.4-11.7v-6c0-5.6-0.8-9.5-2.4-11.8C247.8,187.2,245.1,186,241.2,186z"/>
	<path d="M0,0v400h400V0H0z M120.9,158H96.1v100.2H73.6V158l-24.8,0v-17h72.1V158z M151.7,236.9c1.8,3.9,5.1,5.8,9.9,5.8
		c4.3,0,7.3-1.7,8.9-5.1c1.7-3.4,2.7-10,3.1-19.8l22.4,1.5c-0.5,14-3.5,24.2-8.9,30.7c-5.5,6.5-13.9,9.7-25.2,9.7
		c-11.6,0-20.4-3.4-26.4-10.3c-6-6.8-8.9-16.9-8.9-30.3v-38.4c0-13.7,3-23.9,8.9-30.8c6-6.9,14.7-10.3,26.4-10.3
		c11.3,0,19.7,3.3,25.1,9.8c5.4,6.5,8.4,16.9,9,31.2l-22.4,1.5c-0.4-10.2-1.4-16.9-3.1-20.4c-1.7-3.4-4.6-5.1-8.9-5.1
		c-4.8,0-8.1,1.9-9.9,5.6c-1.8,3.7-2.7,10.4-2.7,19.9v35.9C149,226.7,149.9,233,151.7,236.9z M211,258.2c1.3-2.9,3.1-5.4,5.4-7.5
		c5.5-4.9,13.7-7.4,24.8-7.4c11.1,0,19.4,2.5,24.8,7.4c2.3,2,4.1,4.5,5.4,7.5H211z M274.2,152.8c0,6.3-1.6,11.6-4.9,15.8
		c-3.3,4.2-7.8,6.7-13.5,7.4v4c5.7,0.7,10.2,3.2,13.5,7.4c3.3,4.2,4.9,9.5,4.9,15.8v5c0,10-2.7,17.5-8.2,22.4
		c-5.5,4.9-13.7,7.4-24.8,7.4c-11.1,0-19.4-2.5-24.8-7.4c-5.5-4.9-8.2-12.4-8.2-22.4v-5c0-6.4,1.6-11.7,4.8-15.9
		c3.2-4.2,7.7-6.6,13.4-7.4v-4c-5.7-0.7-10.2-3.2-13.4-7.4c-3.2-4.2-4.8-9.5-4.8-15.9v-5c0-2.4,0.2-4.6,0.5-6.7h22.6
		c-0.5,2.1-0.8,4.7-0.8,7.8v6c0,5.6,0.8,9.5,2.4,11.8c1.6,2.3,4.4,3.4,8.3,3.4c3.9,0,6.6-1.1,8.2-3.4c1.6-2.3,2.4-6.2,2.4-11.8v-6
		c0-3.1-0.3-5.7-0.8-7.8h22.6c0.3,2.1,0.5,4.3,0.5,6.7V152.8z M351.2,258.2h-60.9V141h22.4v100.2l38.5,0V258.2z"/>
</g>
</svg>
