<svg width="694" height="310" viewBox="0 0 694 310" fill="none" xmlns="http://www.w3.org/2000/svg">
<g clip-path="url(#clip0_2297_834)">
<path d="M189.038 144.173C186.006 144.173 183.868 145.057 182.624 146.816C181.372 148.575 180.75 151.613 180.75 155.93V160.565C180.75 164.881 181.372 167.896 182.624 169.624C183.875 171.353 186.013 172.213 189.038 172.213C192.062 172.213 194.208 171.353 195.452 169.624C196.703 167.896 197.325 164.881 197.325 160.565V155.93C197.325 151.613 196.703 148.575 195.452 146.816C194.2 145.057 192.062 144.173 189.038 144.173Z" fill="black"/>
<path d="M0 0V310H310.981V0H0ZM92.1902 122.473H72.9405V200.144H55.4012V122.473H36.1515V109.298H92.1902V122.473ZM117.543 183.621C118.95 186.612 121.508 188.108 125.232 188.108C128.575 188.108 130.892 186.798 132.182 184.186C133.473 181.575 134.274 176.444 134.577 168.803L152.007 169.942C151.626 180.769 149.31 188.697 145.057 193.727C140.804 198.764 134.274 201.275 125.465 201.275C116.657 201.275 109.59 198.625 104.964 193.324C100.33 188.023 98.0133 180.187 98.0133 169.818V140.066C98.0133 129.471 100.33 121.497 104.964 116.165C109.597 110.825 116.431 108.159 125.465 108.159C134.499 108.159 140.789 110.693 145.003 115.77C149.216 120.846 151.549 128.906 152.007 139.957L134.577 141.096C134.274 133.222 133.473 127.96 132.182 125.31C130.892 122.659 128.575 121.334 125.232 121.334C121.508 121.334 118.95 122.775 117.543 125.651C116.136 128.526 115.436 133.672 115.436 141.096V168.919C115.436 175.731 116.136 180.637 117.543 183.621ZM165.551 200.144C166.577 197.873 167.968 195.943 169.733 194.362C173.97 190.549 180.408 188.643 189.037 188.643C197.667 188.643 204.104 190.549 208.341 194.362C210.106 195.943 211.498 197.881 212.524 200.144H165.543H165.551ZM214.709 118.397C214.709 123.287 213.442 127.363 210.907 130.634C208.373 133.904 204.866 135.826 200.404 136.408V139.539C204.866 140.112 208.373 142.042 210.907 145.312C213.442 148.583 214.709 152.667 214.709 157.55V161.432C214.709 169.198 212.586 174.987 208.349 178.8C204.112 182.613 197.675 184.52 189.045 184.52C180.415 184.52 173.978 182.613 169.741 178.8C165.496 174.987 163.381 169.198 163.381 161.432V157.55C163.381 152.59 164.633 148.49 167.129 145.258C169.624 142.019 173.107 140.12 177.578 139.539V136.408C173.107 135.834 169.632 133.928 167.129 130.688C164.633 127.456 163.381 123.357 163.381 118.397V114.514C163.381 112.677 163.506 110.949 163.739 109.329H181.348C180.952 110.934 180.758 112.948 180.758 115.374V120.009C180.758 124.326 181.379 127.363 182.631 129.123C183.883 130.882 186.021 131.766 189.045 131.766C192.069 131.766 194.215 130.882 195.459 129.123C196.711 127.363 197.333 124.326 197.333 120.009V115.374C197.333 112.948 197.138 110.934 196.742 109.329H214.351C214.592 110.949 214.709 112.669 214.709 114.514V118.397ZM274.829 200.144H227.443V109.306H244.874V186.969H274.829V200.144Z" fill="black"/>
<path d="M422.957 109.523V59.7603H410.619V51.3206H446.529V59.7603H434.191V109.523H422.949H422.957Z" fill="black"/>
<path d="M455.05 109.523V51.3206H466.214V71.9821H467.893C468.523 69.8973 469.689 68.2388 471.4 66.9988C473.102 65.7588 475.1 65.1466 477.386 65.1466C480.356 65.1466 482.688 66.2781 484.391 68.5333C486.093 70.7886 486.949 73.8808 486.949 77.8101V109.531H475.784V79.7011C475.784 77.8101 475.466 76.3531 474.836 75.3378C474.206 74.3226 473.304 73.8111 472.138 73.8111C470.972 73.8111 469.806 74.2373 468.78 75.0821C467.761 75.9346 466.906 77.1281 466.222 78.6858V109.539H455.058L455.05 109.523Z" fill="black"/>
<path d="M529.118 99.6264C528.146 103.408 526.474 106.129 524.119 107.772C521.755 109.422 518.241 110.244 513.569 110.244C508.461 110.244 504.41 108.911 501.417 106.245C498.424 103.579 496.931 99.8434 496.931 95.0384V79.9802C496.931 75.3224 498.377 71.6877 501.277 69.0682C504.169 66.4487 508.049 65.1389 512.916 65.1389C517.782 65.1389 521.709 66.4797 524.554 69.1689C527.4 71.8504 528.822 75.7099 528.822 80.7397V89.7374H508.095V95.5189C508.095 97.9602 508.531 99.7737 509.409 100.967C510.288 102.161 511.796 102.757 513.934 102.757C515.683 102.757 517.044 102.347 518.023 101.517C518.995 100.696 519.656 99.2157 519.99 97.0767L529.118 99.6264ZM508.103 79.3292V83.4754H517.666V79.5462C517.666 76.9267 517.316 75.0822 516.608 74.0204C515.901 72.9509 514.673 72.4162 512.923 72.4162C511.174 72.4162 509.868 72.9277 509.168 73.9429C508.461 74.9582 508.111 76.7562 508.111 79.3292H508.103Z" fill="black"/>
<path d="M429.666 184.698C423.874 184.698 419.497 183.001 416.528 179.606C413.558 176.212 412.073 171.19 412.073 164.548V145.483C412.073 138.694 413.558 133.587 416.528 130.169C419.497 126.751 423.874 125.039 429.666 125.039C435.458 125.039 439.486 126.666 442.183 129.913C444.881 133.161 446.382 138.33 446.669 145.413L435.505 146.142C435.311 141.097 434.798 137.725 433.974 136.028C433.149 134.331 431.664 133.478 429.519 133.478C427.132 133.478 425.492 134.401 424.59 136.245C423.688 138.09 423.237 141.383 423.237 146.142V163.967C423.237 168.33 423.688 171.477 424.59 173.391C425.492 175.305 427.132 176.266 429.519 176.266C431.657 176.266 433.142 175.429 433.974 173.755C434.798 172.081 435.311 168.795 435.505 163.897L446.669 164.626C446.428 171.562 444.943 176.646 442.215 179.87C439.486 183.094 435.303 184.706 429.659 184.706L429.666 184.698Z" fill="black"/>
<path d="M455.586 183.969V140.314H466.751V147.661H468.43C469.207 144.847 470.475 142.801 472.224 141.515C473.973 140.228 476.041 139.585 478.428 139.585C481.297 139.585 483.45 140.639 484.889 142.747C486.327 144.855 487.042 147.854 487.042 151.729V159.154H477.044V155.077C477.044 152.559 476.764 150.784 476.204 149.769C475.645 148.753 474.634 148.242 473.172 148.242C471.952 148.242 470.762 148.715 469.596 149.66C468.43 150.606 467.481 152.094 466.751 154.132V183.962H455.586V183.969Z" fill="black"/>
<path d="M528.667 174.073C527.695 177.855 526.024 180.575 523.668 182.218C521.305 183.869 517.79 184.69 513.118 184.69C508.01 184.69 503.96 183.357 500.966 180.691C497.973 178.025 496.48 174.29 496.48 169.485V154.426C496.48 149.769 497.927 146.134 500.826 143.514C503.719 140.895 507.598 139.585 512.465 139.585C517.332 139.585 521.258 140.926 524.103 143.615C526.949 146.297 528.372 150.156 528.372 155.186V164.184H507.645V169.965C507.645 172.406 508.08 174.22 508.959 175.413C509.837 176.607 511.345 177.204 513.483 177.204C515.233 177.204 516.593 176.793 517.573 175.964C518.545 175.142 519.205 173.662 519.54 171.523L528.667 174.073ZM507.645 153.775V157.922H517.207V153.992C517.207 151.373 516.858 149.528 516.15 148.467C515.443 147.397 514.214 146.862 512.465 146.862C510.716 146.862 509.41 147.374 508.71 148.389C508.002 149.404 507.652 151.202 507.652 153.775H507.645Z" fill="black"/>
<path d="M581.355 183.969V175.824H591.135V148.467H581.355V140.321H602.377V175.824H612.158V183.969H581.355ZM603.388 128.224C603.388 124.573 600.418 121.605 596.749 121.605C593.079 121.605 590.109 124.566 590.109 128.224C590.109 131.882 593.079 134.842 596.749 134.842C600.418 134.842 603.388 131.882 603.388 128.224Z" fill="black"/>
<path d="M636.235 184.698C631.275 184.698 627.364 183.35 624.519 180.66C621.673 177.971 620.25 174.298 620.25 169.64V154.946C620.25 150.141 621.673 146.382 624.519 143.67C627.364 140.957 631.267 139.593 636.235 139.593C641.203 139.593 645.028 140.973 647.873 143.739C650.719 146.506 652.142 150.288 652.142 155.093V169.787C652.142 174.445 650.719 178.095 647.873 180.738C645.028 183.381 641.148 184.706 636.235 184.706V184.698ZM636.235 176.553C637.891 176.553 639.096 176.01 639.85 174.918C640.604 173.825 640.977 171.973 640.977 169.353V155.24C640.977 152.574 640.596 150.66 639.85 149.49C639.096 148.327 637.891 147.746 636.235 147.746C634.579 147.746 633.366 148.327 632.589 149.49C631.811 150.652 631.422 152.543 631.422 155.163V169.128C631.422 171.794 631.811 173.701 632.589 174.84C633.366 175.979 634.587 176.553 636.235 176.553Z" fill="black"/>
<path d="M662.101 183.969V140.314H673.265V146.428H674.945C675.722 144.297 676.966 142.623 678.669 141.406C680.371 140.197 682.315 139.585 684.507 139.585C687.477 139.585 689.802 140.701 691.481 142.933C693.16 145.165 694 148.273 694 152.249V183.969H682.836V154.209C682.836 152.272 682.517 150.792 681.887 149.769C681.257 148.753 680.356 148.242 679.189 148.242C678.023 148.242 676.857 148.668 675.831 149.513C674.812 150.365 673.957 151.59 673.273 153.186V183.962H662.109L662.101 183.969Z" fill="black"/>
<path d="M414.778 258.416V200.214H425.942V249.976H445.137V258.416H414.778Z" fill="black"/>
<path d="M464.613 259.144C461.402 259.144 458.782 257.982 456.768 255.649C454.747 253.324 453.736 250.294 453.736 246.558C453.736 242.629 454.817 239.583 456.986 237.429C459.147 235.274 462.008 234.189 465.561 234.189H473.445V227.788C473.445 225.75 473.056 224.285 472.279 223.386C471.501 222.487 470.312 222.037 468.702 222.037C467.093 222.037 466.005 222.533 465.274 223.525C464.543 224.517 463.983 226.323 463.594 228.943L454.615 227.121C455.392 222.564 456.939 219.24 459.248 217.155C461.558 215.07 464.854 214.024 469.138 214.024C473.958 214.024 477.643 215.039 480.193 217.077C482.751 219.116 484.026 222.487 484.026 227.191V246.031C484.026 248.163 484.438 249.511 485.27 250.069C486.094 250.627 487.291 250.712 488.846 250.325V258.331C485.728 259.059 483.241 258.927 481.367 257.928C479.493 256.936 478.195 255.076 477.464 252.363H475.855C474.782 254.301 473.25 255.92 471.26 257.199C469.262 258.486 467.054 259.129 464.621 259.129L464.613 259.144ZM467.676 251.797C468.749 251.797 469.767 251.503 470.739 250.922C471.711 250.34 472.613 249.441 473.437 248.232V240.444H467.303C466.036 240.444 465.134 240.847 464.605 241.645C464.069 242.443 463.804 243.962 463.804 246.194C463.804 247.992 464.108 249.372 464.714 250.34C465.32 251.309 466.308 251.797 467.668 251.797H467.676Z" fill="black"/>
<path d="M513.203 259.005C510.14 259.005 507.147 258.571 504.224 257.695C501.301 256.82 499.093 255.781 497.584 254.564V200.214H508.749V220.875H510.428C511.058 218.643 512.169 216.946 513.748 215.783C515.326 214.621 517.332 214.04 519.773 214.04C523.03 214.04 525.464 215.349 527.073 217.969C528.683 220.588 529.483 224.006 529.483 228.23V243.947C529.483 248.845 528.107 252.58 525.363 255.153C522.611 257.726 518.56 259.013 513.211 259.013L513.203 259.005ZM513.787 250.93C515.489 250.93 516.671 250.41 517.324 249.364C517.985 248.318 518.311 246.489 518.311 243.869V229.54C518.311 227.067 517.993 225.308 517.363 224.262C516.733 223.216 515.808 222.696 514.587 222.696C513.514 222.696 512.496 223.037 511.524 223.712C510.552 224.394 509.627 225.533 508.749 227.129V249.395C509.378 249.883 510.101 250.255 510.902 250.527C511.703 250.79 512.667 250.93 513.787 250.93Z" fill="black"/>
<path d="M569.39 150.164C571.015 148.064 571.831 145.452 571.831 142.321V139.833C571.831 134.858 570.47 131.146 567.757 128.704C565.036 126.263 560.916 125.039 555.38 125.039C549.845 125.039 545.724 126.255 543.003 128.704C540.282 131.146 538.929 134.858 538.929 139.833V142.321C538.929 145.499 539.73 148.126 541.331 150.203C542.933 152.28 545.164 153.497 548.025 153.869V155.876C545.164 156.248 542.933 157.465 541.331 159.542C539.73 161.619 538.929 164.246 538.929 167.423V169.911C538.929 174.887 540.29 178.599 543.003 181.04C545.724 183.481 549.845 184.706 555.38 184.706C560.916 184.706 565.036 183.489 567.757 181.04C570.478 178.599 571.831 174.887 571.831 169.911V167.423C571.831 164.292 571.015 161.673 569.39 159.58C567.765 157.48 565.518 156.248 562.657 155.884V153.876C565.518 153.504 567.765 152.272 569.39 150.18V150.164ZM560.69 169.353C560.69 172.12 560.294 174.057 559.493 175.158C558.692 176.266 557.324 176.816 555.38 176.816C553.436 176.816 552.068 176.266 551.267 175.158C550.467 174.05 550.07 172.112 550.07 169.353V166.377C550.07 163.61 550.467 161.665 551.267 160.534C552.068 159.402 553.436 158.836 555.38 158.836C557.324 158.836 558.692 159.402 559.493 160.534C560.294 161.665 560.69 163.61 560.69 166.377V169.353ZM550.062 140.384C550.062 137.617 550.459 135.679 551.26 134.579C552.06 133.471 553.429 132.92 555.372 132.92C557.316 132.92 558.684 133.471 559.485 134.579C560.286 135.687 560.682 137.625 560.682 140.384V143.36C560.682 146.126 560.286 148.072 559.485 149.203C558.684 150.335 557.316 150.9 555.372 150.9C553.429 150.9 552.06 150.335 551.26 149.203C550.459 148.072 550.062 146.126 550.062 143.36V140.384Z" fill="black"/>
</g>
<defs>
<clipPath id="clip0_2297_834">
<rect width="694" height="310" fill="white"/>
</clipPath>
</defs>
</svg>
