<?xml version="1.0" encoding="UTF-8"?>
<svg id="Layer_3" data-name="Layer 3" xmlns="http://www.w3.org/2000/svg" viewBox="0 0 960 400">
  <defs>
    <style>
      .cls-1 {
        fill: #fff;
        stroke-width: 0px;
      }
    </style>
  </defs>
  <path class="cls-1" d="M243.15,186.03c-3.9,0-6.65,1.14-8.25,3.41-1.61,2.27-2.41,6.19-2.41,11.76v5.98c0,5.57.8,9.46,2.41,11.69,1.61,2.23,4.36,3.34,8.25,3.34s6.65-1.11,8.25-3.34c1.61-2.23,2.41-6.12,2.41-11.69v-5.98c0-5.57-.8-9.49-2.41-11.76-1.61-2.27-4.36-3.41-8.25-3.41ZM0,0v400h400V0H0ZM118.58,158.03h-24.76v100.22h-22.56v-100.22h-24.76s0-16.99,0-16.99h72.08v17ZM151.19,236.93c1.81,3.86,5.1,5.79,9.89,5.79,4.3,0,7.28-1.69,8.94-5.06,1.66-3.37,2.69-9.99,3.08-19.85l22.42,1.47c-.49,13.97-3.47,24.2-8.94,30.69-5.47,6.5-13.87,9.74-25.2,9.74s-20.42-3.42-26.37-10.26c-5.96-6.84-8.94-16.95-8.94-30.33v-38.39c0-13.67,2.98-23.96,8.94-30.84,5.96-6.89,14.75-10.33,26.37-10.33s19.71,3.27,25.13,9.82c5.42,6.55,8.42,16.95,9.01,31.21l-22.42,1.47c-.39-10.16-1.42-16.95-3.08-20.37-1.66-3.42-4.64-5.13-8.94-5.13-4.79,0-8.08,1.86-9.89,5.57-1.81,3.71-2.71,10.35-2.71,19.93v35.9c0,8.79.9,15.12,2.71,18.97ZM212.94,258.25c1.32-2.93,3.11-5.42,5.38-7.46,5.45-4.92,13.73-7.38,24.83-7.38s19.38,2.46,24.83,7.38c2.27,2.04,4.06,4.54,5.38,7.46h-60.43ZM276.17,152.77c0,6.31-1.63,11.57-4.89,15.79-3.26,4.22-7.77,6.7-13.51,7.45v4.04c5.74.74,10.25,3.22,13.51,7.45,3.26,4.22,4.89,9.49,4.89,15.79v5.01c0,10.02-2.73,17.49-8.18,22.41-5.45,4.92-13.73,7.38-24.83,7.38s-19.38-2.46-24.83-7.38c-5.46-4.92-8.18-12.39-8.18-22.41v-5.01c0-6.4,1.61-11.69,4.82-15.86,3.21-4.18,7.69-6.63,13.44-7.38v-4.04c-5.75-.74-10.23-3.2-13.44-7.38-3.21-4.18-4.82-9.46-4.82-15.86v-5.01c0-2.37.16-4.6.46-6.69h22.65c-.51,2.07-.76,4.67-.76,7.8v5.98c0,5.57.8,9.49,2.41,11.76,1.61,2.27,4.36,3.41,8.25,3.41s6.65-1.14,8.25-3.41c1.61-2.27,2.41-6.19,2.41-11.76v-5.98c0-3.13-.25-5.73-.76-7.8h22.65c.31,2.09.46,4.31.46,6.69v5.01ZM353.5,258.25h-60.95v-117.21h22.42v100.21h38.53v17Z"/>
  <path class="cls-1" d="M544.08,141.32v-64.15h-15.85v-10.88h46.15v10.88h-15.85v64.15h-14.44Z"/>
  <path class="cls-1" d="M552.71,238.32c-7.44,0-13.07-2.19-16.88-6.57-3.81-4.38-5.72-10.85-5.72-19.42v-24.57c0-8.75,1.91-15.33,5.72-19.74,3.81-4.41,9.44-6.61,16.88-6.61s12.61,2.1,16.09,6.28c3.47,4.19,5.39,10.85,5.77,19.98l-14.35.94c-.25-6.5-.91-10.85-1.97-13.04-1.06-2.19-2.97-3.28-5.72-3.28-3.06,0-5.17,1.19-6.33,3.56-1.16,2.38-1.74,6.63-1.74,12.76v22.98c0,5.63.58,9.68,1.74,12.15,1.16,2.47,3.27,3.71,6.33,3.71,2.75,0,4.66-1.08,5.72-3.24,1.06-2.16,1.72-6.39,1.97-12.71l14.35.94c-.31,8.94-2.22,15.49-5.72,19.65-3.5,4.16-8.88,6.24-16.13,6.24Z"/>
  <path class="cls-1" d="M533.58,333.44v-75.03h14.35v64.15h24.67v10.88h-39.02Z"/>
  <path class="cls-1" d="M597.14,334.38c-3.75,0-6.66-1.74-8.72-5.21-2.06-3.47-3.09-8.46-3.09-14.96v-12.38c0-8.19,1.92-14.47,5.77-18.85,3.85-4.38,9.36-6.57,16.55-6.57,3.88,0,7.42.39,10.65,1.17,3.22.78,5.89,1.86,8.02,3.24v52.62h-14.35v-9.75h-2.06c-1,3.44-2.58,6.08-4.74,7.93-2.16,1.84-4.83,2.77-8.02,2.77ZM604.55,323.13c1.19,0,2.39-.62,3.61-1.88,1.22-1.25,2.49-3.13,3.8-5.63v-27.76c-.63-.31-1.36-.58-2.2-.8-.84-.22-1.8-.33-2.86-.33-2.56,0-4.41,1.22-5.53,3.66-1.13,2.44-1.69,6.32-1.69,11.63v11.35c0,3.44.41,5.92,1.22,7.46.81,1.53,2.03,2.3,3.66,2.3Z"/>
  <path class="cls-1" d="M714.52,334.2c-3.94,0-7.78-.56-11.54-1.69-3.75-1.13-6.6-2.47-8.53-4.03v-70.06h14.35v26.64h2.16c.81-2.88,2.23-5.06,4.27-6.57,2.03-1.5,4.61-2.25,7.74-2.25,4.19,0,7.32,1.69,9.38,5.06,2.06,3.38,3.1,7.78,3.1,13.22v20.26c0,6.32-1.77,11.13-5.3,14.44-3.53,3.31-8.74,4.97-15.62,4.97ZM715.27,323.78c2.19,0,3.7-.67,4.55-2.02.84-1.34,1.27-3.7,1.27-7.08v-18.48c0-3.19-.41-5.45-1.22-6.8-.81-1.34-2-2.02-3.56-2.02-1.38,0-2.69.44-3.94,1.31-1.25.88-2.44,2.34-3.56,4.41v28.7c.81.63,1.74,1.11,2.77,1.45,1.03.34,2.27.52,3.7.52Z"/>
  <path class="cls-1" d="M639.98,310.14v-5.16h40.8v5.16h-40.8Z"/>
  <path class="cls-1" d="M586.64,237.38v-56.28h14.35v9.47h2.16c1-3.63,2.63-6.27,4.88-7.93,2.25-1.66,4.91-2.49,7.97-2.49,3.69,0,6.46,1.36,8.3,4.08,1.84,2.72,2.77,6.58,2.77,11.58v9.57h-12.85v-5.25c0-3.25-.36-5.53-1.08-6.85-.72-1.31-2.02-1.97-3.89-1.97-1.56,0-3.1.61-4.6,1.83-1.5,1.22-2.72,3.14-3.66,5.77v38.45h-14.35Z"/>
  <path class="cls-1" d="M681.25,224.63c-1.25,4.88-3.39,8.38-6.42,10.5-3.03,2.13-7.55,3.19-13.55,3.19-6.57,0-11.77-1.72-15.62-5.16-3.85-3.44-5.77-8.25-5.77-14.44v-19.42c0-6,1.86-10.69,5.58-14.07,3.72-3.38,8.71-5.06,14.96-5.06s11.3,1.73,14.96,5.19,5.49,8.43,5.49,14.91v11.6h-26.64v7.45c0,3.15.56,5.49,1.69,7.03,1.13,1.54,3.06,2.31,5.82,2.31,2.25,0,4-.53,5.25-1.59,1.25-1.06,2.09-2.97,2.53-5.72l11.72,3.28ZM654.24,198.46v5.35h12.29v-5.06c0-3.38-.45-5.75-1.36-7.13-.91-1.37-2.49-2.06-4.74-2.06s-3.92.66-4.83,1.97c-.91,1.31-1.36,3.63-1.36,6.94Z"/>
  <path class="cls-1" d="M824.21,238.32c-6.38,0-11.4-1.74-15.05-5.21s-5.49-8.21-5.49-14.21v-18.95c0-6.19,1.83-11.04,5.49-14.54,3.66-3.5,8.68-5.25,15.05-5.25s11.3,1.78,14.96,5.35c3.66,3.56,5.49,8.44,5.49,14.63v18.95c0,6-1.83,10.71-5.49,14.12-3.66,3.41-8.65,5.11-14.96,5.11ZM824.21,227.81c2.12,0,3.67-.7,4.64-2.11.97-1.41,1.45-3.8,1.45-7.17v-18.2c0-3.44-.49-5.91-1.45-7.41-.97-1.5-2.52-2.25-4.64-2.25s-3.69.75-4.69,2.25c-1,1.5-1.5,3.94-1.5,7.32v18.01c0,3.44.5,5.89,1.5,7.36,1,1.47,2.56,2.2,4.69,2.2Z"/>
  <path class="cls-1" d="M858.14,237.38v-56.28h14.35v7.88h2.16c1-2.75,2.59-4.91,4.78-6.47,2.19-1.56,4.69-2.35,7.5-2.35,3.81,0,6.8,1.44,8.96,4.31,2.16,2.88,3.24,6.88,3.24,12.01v40.89h-14.35v-38.36c0-2.5-.41-4.41-1.22-5.72-.81-1.31-1.97-1.97-3.47-1.97s-3,.55-4.31,1.64c-1.31,1.09-2.41,2.67-3.28,4.74v39.67h-14.35Z"/>
  <path class="cls-1" d="M585.33,141.32v-75.03h14.35v26.64h2.16c.81-2.69,2.31-4.83,4.5-6.42,2.19-1.59,4.75-2.39,7.69-2.39,3.81,0,6.81,1.45,9,4.36,2.19,2.91,3.28,6.89,3.28,11.96v40.89h-14.35v-38.45c0-2.44-.41-4.31-1.22-5.63-.81-1.31-1.97-1.97-3.47-1.97s-3,.55-4.31,1.64c-1.31,1.09-2.41,2.64-3.28,4.64v39.77h-14.35Z"/>
  <path class="cls-1" d="M680.75,128.56c-1.25,4.88-3.39,8.38-6.42,10.5-3.03,2.13-7.55,3.19-13.55,3.19-6.57,0-11.77-1.72-15.62-5.16-3.85-3.44-5.77-8.25-5.77-14.44v-19.42c0-6,1.86-10.69,5.58-14.07,3.72-3.38,8.71-5.06,14.96-5.06s11.3,1.73,14.96,5.19c3.66,3.46,5.49,8.43,5.49,14.92v11.6h-26.64v7.45c0,3.14.56,5.49,1.69,7.03s3.06,2.31,5.82,2.31c2.25,0,4-.53,5.25-1.59,1.25-1.06,2.09-2.97,2.53-5.72l11.72,3.28ZM653.74,102.39v5.35h12.29v-5.07c0-3.38-.45-5.75-1.36-7.13-.91-1.37-2.49-2.06-4.74-2.06s-3.92.66-4.83,1.97c-.91,1.31-1.36,3.63-1.36,6.94Z"/>
  <path class="cls-1" d="M714.99,238.32c-7.13,0-12.44-1.66-15.94-4.97-3.5-3.31-5.25-8.35-5.25-15.1v-3.38c0-4.31,1.03-7.88,3.09-10.69,2.06-2.81,4.94-4.47,8.63-4.97v-2.72c-2.94-.38-5.39-1.7-7.36-3.99-1.97-2.28-2.95-5.3-2.95-9.05v-4.31c0-6,1.63-10.46,4.88-13.37,3.25-2.91,8.22-4.36,14.91-4.36s11.66,1.45,14.91,4.36c3.25,2.91,4.88,7.36,4.88,13.37v4.31c0,3.75-1,6.77-3,9.05-2,2.28-4.47,3.61-7.41,3.99v2.72c3.69.5,6.58,2.17,8.68,5.02,2.09,2.85,3.14,6.39,3.14,10.65v3.38c0,6.75-1.75,11.79-5.25,15.1-3.5,3.31-8.82,4.97-15.94,4.97ZM714.99,227.63c2.5,0,4.27-.75,5.3-2.25s1.55-4.13,1.55-7.88v-4.03c0-3.75-.52-6.39-1.55-7.93-1.03-1.53-2.8-2.3-5.3-2.3s-4.27.77-5.3,2.3c-1.03,1.53-1.55,4.17-1.55,7.93v4.03c0,3.75.52,6.38,1.55,7.88s2.8,2.25,5.3,2.25ZM714.99,192.74c2,0,3.41-.59,4.22-1.78.81-1.19,1.22-3.25,1.22-6.19v-4.88c0-2.88-.41-4.89-1.22-6.05-.81-1.16-2.22-1.74-4.22-1.74s-3.41.58-4.22,1.74c-.81,1.16-1.22,3.17-1.22,6.05v4.88c0,2.94.41,5,1.22,6.19.81,1.19,2.22,1.78,4.22,1.78Z"/>
  <path class="cls-1" d="M749.76,237.38v-10.5h12.57v-35.27h-12.57v-10.5h27.01v45.77h12.57v10.5h-39.58ZM770.3,171.63c-2.69,0-4.89-.44-6.61-1.31-1.72-.87-2.58-2.47-2.58-4.78v-1.03c0-2.31.86-3.95,2.58-4.92,1.72-.97,3.92-1.45,6.61-1.45s4.97.49,6.66,1.45c1.69.97,2.53,2.61,2.53,4.92v1.03c0,2.31-.86,3.91-2.58,4.78-1.72.88-3.92,1.31-6.61,1.31Z"/>
</svg>